# xmcd
#
# Track frame offsets:
#	150
#	13982
#	26095
#	44390
#	56905
#	73130
#	87822
#	100585
#	115420
#	128497
#	145435
#
# Disc length: 2122 seconds
#
# Revision: 0
# Processed by: cddbd v1.5.2PL0 Copyright (c) Steve Scherf et al.
# Submitted via: dBpowerAMP V4.0
#
DISCID=9c08480b
DTITLE=Bret Marchant - Roping The Moon
DYEAR=1900
DGENRE=
TTITLE0=Brand Man
TTITLE1=Building Webs
TTITLE2=Diane
TTITLE3=I Couldn''t Write A Love Song
TTITLE4=Corporate World
TTITLE5=Lost To Lust
TTITLE6=Roped The Moon
TTITLE7=Weary Soldier
TTITLE8=That's How You Know
TTITLE9=Something Different
TTITLE10=Fire And Water
EXTD=
EXTT0=
EXTT1=
EXTT2=
EXTT3=
EXTT4=
EXTT5=
EXTT6=
EXTT7=
EXTT8=
EXTT9=
EXTT10=
PLAYORDER=
